#!OML:ASF I:\golf\golf\golf 2\Subject 1\2002-09-07\Subject1.ASF
:FULLY-SPECIFIED
:DEGREES
357
root -5.03378 18.0886 -4.83772 -164.628 -6.24474 -180.599
lowerback -10.6106 15.4978 14.5978
upperback -13.7653 17.1133 1.48424
thorax -5.57232 6.26157 -4.31176
lowerneck -13.734 -16.2509 -4.03817
upperneck 14.6443 -20.7668 -4.13398
head 6.63443 -10.647 -2.70513
rclavicle -1.11319e-013 -5.56597e-014
rhumerus 96.5547 27.5765 -56.0456
rradius 78.1878
rwrist -3.6659
rhand -36.1523 27.2768
rfingers 7.12502
rthumb -9.25677 -2.50001
lclavicle -1.11319e-013 -5.56597e-014
lhumerus 60.469 19.3328 48.9504
lradius 81.1321
lwrist 21.5053
lhand -22.8064 18.465
lfingers 7.12502
lthumb -176.37 -131.586
rfemur 14.5119 -6.60452 20.3265
rtibia 13.8062
rfoot 25.8781 -34.5207
rtoes 21.6611
lfemur -25.0948 -12.6118 -19.94
ltibia 24.3564
lfoot 45.3191 -44.732
ltoes 56.5721
358
root -5.01597 18.0986 -4.8303 -164.545 -6.20459 -180.436
lowerback -10.6426 15.3968 14.8336
upperback -13.6129 16.9542 1.62382
thorax -5.39477 6.19061 -4.28112
lowerneck -14.1038 -16.149 -3.95899
upperneck 14.7418 -20.6031 -4.21284
head 6.71047 -10.5657 -2.76029
rclavicle 9.14409e-014 -1.27222e-014
rhumerus 96.1944 27.4424 -56.2953
rradius 77.534
rwrist -4.14853
rhand -35.8552 26.8071
rfingers 7.12502
rthumb -8.97013 -2.98219
lclavicle 9.14409e-014 -1.27222e-014
lhumerus 60.5454 18.7371 48.6746
lradius 80.2245
lwrist 22.1108
lhand -22.4864 18.6163
lfingers 7.12502
lthumb -176.061 -131.44
rfemur 14.4144 -6.57651 20.6347
rtibia 13.7107
rfoot 24.6958 -35.5711
rtoes 23.5133
lfemur -25.2286 -12.4376 -19.7227
ltibia 24.4251
lfoot 44.9687 -44.9318
ltoes 56.4682
359
root -5.00113 18.1058 -4.81667 -164.492 -6.13106 -180.351
lowerback -10.4946 15.2849 15.1048
upperback -13.5163 16.8281 1.67995
thorax -5.3364 6.12205 -4.39148
lowerneck -14.3189 -16.0846 -4.06554
upperneck 14.8554 -20.5187 -4.0075
head 6.81736 -10.5076 -2.70933
rclavicle -3.4191e-014 8.5875e-014
rhumerus 95.7592 27.397 -56.6086
rradius 76.9776
rwrist -4.54839
rhand -35.6821 26.0828
rfingers 7.12502
rthumb -8.80303 -3.71362
lclavicle -3.4191e-014 8.5875e-014
lhumerus 60.6416 17.9832 48.4427
lradius 79.321
lwrist 22.7072
lhand -22.2758 18.7629
lfingers 7.12502
lthumb -175.858 -131.298
rfemur 14.3452 -6.72394 20.7635
rtibia 13.6375
rfoot 23.6884 -36.2326
rtoes 24.9708
lfemur -25.357 -12.3829 -19.6074
ltibia 24.5157
lfoot 44.5806 -44.8092
ltoes 56.2845
360
root -4.98717 18.1121 -4.80168 -164.449 -5.983 -180.364
lowerback -10.3085 15.1761 15.2426
upperback -13.4366 16.7268 1.73323
thorax -5.34426 6.07141 -4.45189
lowerneck -14.4524 -15.9248 -3.84058
upperneck 14.8061 -20.3038 -4.18003
head 6.78229 -10.4078 -2.77057
rclavicle 2.62396e-014 -9.54166e-015
rhumerus 95.2002 27.3774 -56.9866
rradius 76.4703
rwrist -5.03497
rhand -35.3355 25.4184
rfingers 7.12502
rthumb -8.46853 -4.39185
lclavicle 2.62396e-014 -9.54166e-015
lhumerus 60.7787 17.1079 48.3054
lradius 78.3291
lwrist 23.2602
lhand -22.2155 18.9676
lfingers 7.12502
lthumb -175.799 -131.094
rfemur 14.2256 -6.82478 20.7594
rtibia 13.6638
rfoot 24.2337 -35.8472
rtoes 23.1921
lfemur -25.4539 -12.3802 -19.618
ltibia 24.6012
lfoot 43.8752 -44.795
ltoes 55.8276
361
root -4.97281 18.1161 -4.78733 -164.433 -5.72613 -180.426
lowerback -10.1982 15.0778 15.1998
upperback -13.3046 16.6289 1.88745
thorax -5.32486 6.04399 -4.30713
lowerneck -14.4511 -15.7683 -3.79816
upperneck 14.6247 -20.0712 -4.28717
head 6.70933 -10.3023 -2.77098
rclavicle 9.22361e-014 2.38542e-014
rhumerus 94.5713 27.3344 -57.3255
rradius 75.9343
rwrist -5.53271
rhand -34.87 25.0902
rfingers 7.12502
rthumb -8.01932 -4.73765
lclavicle 9.22361e-014 2.38542e-014
lhumerus 60.7457 16.282 48.1669
lradius 77.3941
lwrist 23.6703
lhand -22.2643 19.1448
lfingers 7.12502
lthumb -175.846 -130.916
rfemur 14.0695 -6.74324 20.6951
rtibia 13.8213
rfoot 24.8761 -35.3573
rtoes 21.0469
lfemur -25.4432 -12.3337 -19.7077
ltibia 24.6515
lfoot 42.7623 -45.0592
ltoes 55.0219
362
root -4.96467 18.1195 -4.7701 -164.395 -5.47648 -180.5
lowerback -10.087 15.0225 15.2821
upperback -13.1478 16.5847 1.97527
thorax -5.21973 6.04266 -4.27206
lowerneck -14.5207 -15.6926 -3.90961
upperneck 14.4522 -19.9424 -4.20387
head 6.68619 -10.2337 -2.71692
rclavicle -1.43125e-014 -1.03368e-013
rhumerus 93.9282 27.2495 -57.6301
rradius 75.3129
rwrist -5.61318
rhand -34.5426 24.8609
rfingers 7.12502
rthumb -7.70332 -4.97874
lclavicle -1.43125e-014 -1.03368e-013
lhumerus 60.6721 15.5149 47.9894
lradius 76.6428
lwrist 24.094
lhand -22.3252 19.3738
lfingers 7.12502
lthumb -175.905 -130.686
rfemur 13.8615 -6.85309 20.5125
rtibia 14.0875
rfoot 24.8678 -34.9609
rtoes 20.125
lfemur -25.4363 -12.4701 -19.7955
ltibia 24.6512
lfoot 41.4152 -45.1902
ltoes 54.2558
363
root -4.96006 18.1235 -4.74727 -164.379 -5.28132 -180.606
lowerback -9.88381 14.9704 15.4949
upperback -12.959 16.575 1.97484
thorax -5.06506 6.06054 -4.39552
lowerneck -14.8122 -15.6558 -3.94787
upperneck 14.4227 -19.861 -4.16957
head 6.73213 -10.1866 -2.71818
rclavicle -7.39479e-014 -1.30403e-013
rhumerus 93.369 27.2026 -57.891
rradius 74.6175
rwrist -5.30564
rhand -34.6046 24.4155
rfingers 7.12502
rthumb -7.76316 -5.422
lclavicle -7.39479e-014 -1.30403e-013
lhumerus 60.8123 14.6968 47.93
lradius 75.8924
lwrist 24.5501
lhand -22.2912 19.7163
lfingers 7.12502
lthumb -175.872 -130.344
rfemur 13.6875 -7.1175 20.2482
rtibia 14.3348
rfoot 24.2998 -34.8861
rtoes 20.5839
lfemur -25.4391 -12.7829 -19.8985
ltibia 24.6494
lfoot 40.0645 -45.1233
ltoes 53.7456
364
root -4.9462 18.1285 -4.7273 -164.379 -4.99571 -180.724
lowerback -9.74595 14.8904 15.4853
upperback -12.7205 16.5265 2.06709
thorax -4.90556 6.08318 -4.31497
lowerneck -15.1177 -15.5562 -3.91011
upperneck 14.4016 -19.6937 -4.23529
head 6.76558 -10.1046 -2.74972
rclavicle -1.24042e-013 -8.42847e-014
rhumerus 92.88 27.1584 -58.106
rradius 74.0225
rwrist -5.25849
rhand -34.7383 23.9089
rfingers 7.12502
rthumb -7.89218 -5.92375
lclavicle -1.24042e-013 -8.42847e-014
lhumerus 61.0264 13.8828 48.0452
lradius 75.0999
lwrist 24.9551
lhand -22.1702 20.018
lfingers 7.12502
lthumb -175.756 -130.044
rfemur 13.5418 -7.0448 20.0949
rtibia 14.5333
rfoot 22.9492 -35.5148
rtoes 22.1161
lfemur -25.4311 -12.9313 -20.0239
ltibia 24.6738
lfoot 38.7081 -45.1644
ltoes 53.2268
